<?xml version="1.0" encoding="utf-8"?>
<!-- Generator: Adobe Illustrator 18.1.1, SVG Export Plug-In . SVG Version: 6.00 Build 0)  -->
<svg version="1.1" id="Capa_1" xmlns="http://www.w3.org/2000/svg" xmlns:xlink="http://www.w3.org/1999/xlink" x="0px" y="0px"
	 viewBox="0 0 1400 980" enable-background="new 0 0 1400 980" xml:space="preserve">
<g>
	<g>
		<g>
			<path fill="#424242" d="M717.4,925.1c0.5,0,0.9,0.4,0.9,0.4l-7.5,16c-0.8,0-2.8,0.1-3.3,0.1c-0.5,0-0.9-0.4-0.9-0.4l-2.6-16
				c1.6,0,3.5-0.1,4.1-0.1c0.5,0,0.9,0.4,0.9,0.4l0.8,7.8c0.1,0.7,0.1,1.6,0,2.6c0.3-1.1,0.5-2.1,0.8-2.8l3.1-7.9
				C715.1,925.2,716.8,925.1,717.4,925.1L717.4,925.1z"/>
		</g>
		<g>
			<path fill="#424242" d="M725.1,933c0,1.7-1,2.9-3.4,3.4l-2.5,0.5c0.2,1.1,0.9,1.6,2,1.6c1.4,0,2.3-1.1,2.3-1.1s0.7,0.4,0.7,1.2
				c0,1.5-2.2,3-4.8,3c-2.6,0-4.4-1.7-4.4-4.5c0-3.2,2.3-7.6,6.4-7.6C723.7,929.7,725.1,931,725.1,933L725.1,933z M720.8,934.7
				c0.5-0.2,0.7-0.6,0.7-1.1c0-0.5-0.2-1.2-0.7-1.2c-1,0-1.5,1.6-1.6,2.9L720.8,934.7z"/>
		</g>
		<g>
			<path fill="#424242" d="M732,929.7c2.1,0,3.6,1.1,3.6,2.5c0,1.8-2.2,2.4-2.2,2.4s-0.6-1.9-2.1-1.9c-1,0-1.5,1-1.5,3.1
				c0,1.9,0.5,2.8,1.8,2.8c1.3,0,2.1-0.9,2.1-0.9s0.7,0.4,0.7,1.2c0,1.4-2.1,2.9-4.6,2.9c-2.7,0-4.3-1.7-4.3-4.4
				C725.5,934.1,727.8,929.7,732,929.7L732,929.7z"/>
		</g>
		<g>
			<path fill="#424242" d="M741.9,927.1c0.5,0,0.8,0.4,0.8,0.4l-0.4,2.4h2.6l-0.6,1.9c-0.2,0.6-0.5,0.9-1.1,0.9h-1.4l-0.8,4.8
				c-0.1,0.8,0,1.1,0.6,1.1c0.5,0,0.9-0.3,0.9-0.3s0.7,0.4,0.7,1.2c0,1.2-1.7,2.3-3.8,2.3c-2.2,0-3.1-1.4-2.8-3.8l0.8-5.3h-1.4
				l0.6-1.9c0.2-0.5,0.6-0.9,1.1-0.9h0.7l0.8-2.3C740.5,927.4,741.4,927.1,741.9,927.1L741.9,927.1z"/>
		</g>
		<g>
			<path fill="#424242" d="M754.5,933c0,1.7-1,2.9-3.4,3.4l-2.5,0.5c0.2,1.1,0.9,1.6,2,1.6c1.4,0,2.3-1.1,2.3-1.1s0.7,0.4,0.7,1.2
				c0,1.5-2.2,3-4.8,3c-2.6,0-4.4-1.7-4.4-4.5c0-3.2,2.3-7.6,6.4-7.6C753.1,929.7,754.5,931,754.5,933L754.5,933z M750.2,934.7
				c0.5-0.2,0.7-0.6,0.7-1.1c0-0.5-0.2-1.2-0.7-1.2c-1,0-1.5,1.6-1.6,2.9L750.2,934.7z"/>
		</g>
		<g>
			<path fill="#424242" d="M764.9,933c0,1.7-1,2.9-3.4,3.4l-2.5,0.5c0.2,1.1,0.9,1.6,2,1.6c1.4,0,2.3-1.1,2.3-1.1s0.7,0.4,0.7,1.2
				c0,1.5-2.2,3-4.8,3c-2.6,0-4.4-1.7-4.4-4.5c0-3.2,2.3-7.6,6.4-7.6C763.5,929.7,764.9,931,764.9,933L764.9,933z M760.6,934.7
				c0.5-0.2,0.7-0.6,0.7-1.1c0-0.5-0.2-1.2-0.7-1.2c-1,0-1.5,1.6-1.6,2.9L760.6,934.7z"/>
		</g>
		<g>
			<path fill="#424242" d="M773.4,937.4c0,0,0.9,0.8,0.9,2.1c0,1.8-1.5,2.3-2.8,2.3c-1.7,0-2.9-0.8-4.1-1.2c-0.3,0.4-0.7,0.8-1,1.2
				c0,0-1.9,0-1.9-1.3c0-1.5,2.6-4.2,5.4-7.2c-0.3-0.1-0.6-0.1-0.9-0.1c-1.6,0-2.2,0.8-2.2,0.8s-0.8-0.9-0.7-2.1
				c0.1-1.7,1.7-2.1,3-2.1c1.3,0,2.3,0.5,3.3,0.9l0.8-0.9c0,0,1.9,0.1,1.9,1.3c0,1.5-2.5,4.1-5.2,7c0.6,0.2,1.1,0.3,1.6,0.3
				C772.7,938.3,773.4,937.4,773.4,937.4L773.4,937.4z"/>
		</g>
		<g>
			<path fill="#424242" d="M785.5,940.8c-0.7,4.1-3.5,6.2-7,6.2c-2.3,0-3.9-1.2-3.9-2.6c0-0.9,0.8-1.3,0.8-1.3s0.8,0.7,2.3,0.7
				c1.4,0,3.3-0.6,3.7-2.8l0.3-1.7c-1,1.4-2.2,2.5-3.8,2.5c-1.8,0-2.6-1.5-2.1-4.5l0.5-3.2c0.3-2,0.4-3.6,0.4-3.6
				c1.3-0.2,3-0.8,3.6-0.8c0.5,0,0.9,0.4,0.9,0.4l-0.6,4l-0.6,3.7c-0.1,0.3,0,0.5,0.3,0.5c1.5,0,2.3-4.3,2.3-4.3
				c0.3-2,0.4-3.6,0.4-3.6c1.3-0.2,3-0.8,3.6-0.8c0.5,0,0.9,0.4,0.9,0.4l-0.6,4L785.5,940.8z"/>
		</g>
	</g>
	<g>
		<path fill="#424242" d="M612.8,930.3h4c0.9,0,1.6,0.1,2.1,0.2c0.6,0.2,1.2,0.5,1.6,1c0.5,0.5,0.8,1.1,1,1.8
			c0.2,0.7,0.4,1.6,0.4,2.6c0,0.9-0.1,1.7-0.3,2.3c-0.3,0.8-0.7,1.4-1.2,1.9c-0.4,0.4-0.9,0.7-1.5,0.9c-0.5,0.2-1.1,0.2-1.9,0.2
			h-4.1V930.3z M615,932.2v7.2h1.6c0.6,0,1.1,0,1.3-0.1c0.4-0.1,0.7-0.2,0.9-0.5c0.2-0.2,0.4-0.6,0.6-1c0.1-0.5,0.2-1.1,0.2-2
			s-0.1-1.5-0.2-1.9c-0.1-0.4-0.4-0.8-0.6-1.1c-0.3-0.3-0.6-0.4-1-0.5c-0.3-0.1-0.9-0.1-1.8-0.1H615z"/>
		<path fill="#424242" d="M628,938.7l2.1,0.3c-0.3,0.8-0.7,1.3-1.3,1.7c-0.6,0.4-1.3,0.6-2.2,0.6c-1.4,0-2.4-0.4-3-1.3
			c-0.5-0.7-0.8-1.6-0.8-2.7c0-1.3,0.3-2.3,1-3.1c0.7-0.7,1.5-1.1,2.6-1.1c1.2,0,2.1,0.4,2.8,1.2c0.7,0.8,1,2,1,3.6H625
			c0,0.6,0.2,1.1,0.5,1.4c0.3,0.3,0.7,0.5,1.2,0.5c0.3,0,0.6-0.1,0.8-0.3S627.9,939.1,628,938.7z M628.2,936.6
			c0-0.6-0.2-1.1-0.5-1.4c-0.3-0.3-0.7-0.5-1.1-0.5c-0.5,0-0.8,0.2-1.1,0.5c-0.3,0.3-0.4,0.8-0.4,1.3H628.2z"/>
		<path fill="#424242" d="M630.9,938.9l2.1-0.3c0.1,0.4,0.3,0.7,0.5,0.9c0.3,0.2,0.7,0.3,1.1,0.3c0.5,0,0.9-0.1,1.2-0.3
			c0.2-0.1,0.3-0.3,0.3-0.6c0-0.2,0-0.3-0.1-0.4c-0.1-0.1-0.3-0.2-0.7-0.3c-1.7-0.4-2.7-0.7-3.2-1c-0.6-0.4-0.9-1-0.9-1.8
			c0-0.7,0.3-1.3,0.8-1.7c0.5-0.5,1.4-0.7,2.5-0.7c1.1,0,1.9,0.2,2.4,0.5c0.5,0.4,0.9,0.9,1.1,1.6l-2,0.4c-0.1-0.3-0.2-0.5-0.5-0.7
			c-0.2-0.2-0.6-0.2-1-0.2c-0.5,0-0.9,0.1-1.2,0.2c-0.2,0.1-0.2,0.2-0.2,0.4c0,0.1,0.1,0.3,0.2,0.4c0.2,0.1,0.8,0.3,1.9,0.6
			c1.1,0.3,1.9,0.6,2.3,0.9c0.4,0.4,0.7,0.9,0.7,1.5c0,0.7-0.3,1.3-0.9,1.9c-0.6,0.5-1.5,0.8-2.7,0.8c-1.1,0-1.9-0.2-2.5-0.7
			C631.5,940.3,631.1,939.7,630.9,938.9z"/>
		<path fill="#424242" d="M639.8,932.2v-1.9h2.1v1.9H639.8z M639.8,941.2v-7.9h2.1v7.9H639.8z"/>
		<path fill="#424242" d="M643.5,941.7l2.4,0.3c0,0.3,0.1,0.5,0.3,0.6c0.2,0.1,0.5,0.2,0.9,0.2c0.5,0,1-0.1,1.2-0.2
			c0.2-0.1,0.3-0.3,0.4-0.5c0.1-0.2,0.1-0.5,0.1-1v-1.1c-0.6,0.8-1.4,1.3-2.4,1.3c-1.1,0-1.9-0.4-2.5-1.3c-0.5-0.7-0.7-1.6-0.7-2.6
			c0-1.3,0.3-2.3,1-3c0.6-0.7,1.4-1,2.4-1c1,0,1.8,0.4,2.4,1.3v-1.1h1.9v7.1c0,0.9-0.1,1.6-0.2,2.1c-0.2,0.5-0.4,0.8-0.6,1.1
			c-0.3,0.3-0.6,0.5-1.1,0.6c-0.5,0.1-1,0.2-1.8,0.2c-1.3,0-2.3-0.2-2.8-0.7c-0.6-0.5-0.8-1-0.8-1.7
			C643.5,941.9,643.5,941.8,643.5,941.7z M645.3,937.1c0,0.8,0.2,1.4,0.5,1.8c0.3,0.4,0.7,0.6,1.2,0.6c0.5,0,0.9-0.2,1.3-0.6
			c0.4-0.4,0.5-1,0.5-1.8c0-0.8-0.2-1.4-0.5-1.8c-0.3-0.4-0.8-0.6-1.3-0.6c-0.5,0-0.9,0.2-1.2,0.6
			C645.5,935.7,645.3,936.3,645.3,937.1z"/>
		<path fill="#424242" d="M659.8,941.2h-2.1v-4c0-0.8,0-1.4-0.1-1.6c-0.1-0.2-0.2-0.4-0.4-0.6c-0.2-0.1-0.4-0.2-0.7-0.2
			c-0.4,0-0.7,0.1-1,0.3c-0.3,0.2-0.5,0.5-0.6,0.8c-0.1,0.3-0.2,0.9-0.2,1.8v3.6h-2.1v-7.9h1.9v1.2c0.7-0.9,1.6-1.3,2.6-1.3
			c0.5,0,0.9,0.1,1.3,0.2c0.4,0.2,0.7,0.4,0.9,0.6c0.2,0.3,0.3,0.5,0.4,0.9c0.1,0.3,0.1,0.8,0.1,1.4V941.2z"/>
		<path fill="#424242" d="M666.2,938.7l2.1,0.3c-0.3,0.8-0.7,1.3-1.3,1.7c-0.6,0.4-1.3,0.6-2.2,0.6c-1.4,0-2.4-0.4-3-1.3
			c-0.5-0.7-0.8-1.6-0.8-2.7c0-1.3,0.3-2.3,1-3.1c0.7-0.7,1.5-1.1,2.6-1.1c1.2,0,2.1,0.4,2.8,1.2c0.7,0.8,1,2,1,3.6h-5.2
			c0,0.6,0.2,1.1,0.5,1.4c0.3,0.3,0.7,0.5,1.2,0.5c0.3,0,0.6-0.1,0.8-0.3C665.9,939.4,666,939.1,666.2,938.7z M666.3,936.6
			c0-0.6-0.2-1.1-0.5-1.4c-0.3-0.3-0.7-0.5-1.1-0.5c-0.5,0-0.8,0.2-1.1,0.5c-0.3,0.3-0.4,0.8-0.4,1.3H666.3z"/>
		<path fill="#424242" d="M677,941.2H675V940c-0.3,0.4-0.7,0.8-1.1,1c-0.4,0.2-0.9,0.3-1.3,0.3c-0.9,0-1.7-0.4-2.3-1.1
			c-0.6-0.7-1-1.7-1-3c0-1.3,0.3-2.3,0.9-3c0.6-0.7,1.4-1,2.4-1c0.9,0,1.6,0.4,2.3,1.1v-3.9h2.1V941.2z M671.4,937.1
			c0,0.8,0.1,1.4,0.3,1.8c0.3,0.5,0.8,0.8,1.4,0.8c0.5,0,0.9-0.2,1.2-0.6c0.3-0.4,0.5-1,0.5-1.8c0-0.9-0.2-1.6-0.5-2
			c-0.3-0.4-0.7-0.6-1.3-0.6c-0.5,0-0.9,0.2-1.2,0.6C671.6,935.7,671.4,936.3,671.4,937.1z"/>
		<path fill="#424242" d="M682.5,941.2v-10.9h2.1v3.9c0.6-0.7,1.4-1.1,2.3-1.1c1,0,1.8,0.3,2.4,1c0.6,0.7,0.9,1.7,0.9,3
			c0,1.3-0.3,2.4-1,3.1c-0.6,0.7-1.4,1.1-2.3,1.1c-0.4,0-0.9-0.1-1.3-0.3c-0.4-0.2-0.8-0.6-1.1-1v1.2H682.5z M684.6,937.1
			c0,0.8,0.1,1.4,0.4,1.8c0.4,0.6,0.8,0.8,1.4,0.8c0.5,0,0.9-0.2,1.2-0.6c0.3-0.4,0.5-1,0.5-1.9c0-0.9-0.2-1.5-0.5-1.9
			c-0.3-0.4-0.7-0.6-1.3-0.6c-0.5,0-0.9,0.2-1.2,0.6C684.8,935.7,684.6,936.3,684.6,937.1z"/>
		<path fill="#424242" d="M690.6,933.3h2.2l1.9,5.6l1.8-5.6h2.2l-2.8,7.6l-0.5,1.4c-0.2,0.5-0.4,0.8-0.5,1.1
			c-0.2,0.2-0.4,0.4-0.6,0.6c-0.2,0.2-0.5,0.3-0.8,0.4c-0.3,0.1-0.7,0.1-1.1,0.1c-0.4,0-0.8,0-1.2-0.1l-0.2-1.6
			c0.3,0.1,0.6,0.1,0.9,0.1c0.5,0,0.8-0.1,1.1-0.4c0.2-0.3,0.4-0.6,0.5-1.1L690.6,933.3z"/>
	</g>
</g>
<g>
	<path fill="#333333" d="M1264.5,101.2c-21.2,0-31.8-10.5-42.1-20.7c-10-9.9-19.4-19.3-38.6-19.3c-19.1,0-28.6,9.4-38.6,19.3
		c-10.3,10.2-20.9,20.7-42.1,20.7c-21.2,0-31.8-10.5-42.1-20.7c-10-9.9-19.4-19.3-38.6-19.3c-19.1,0-28.6,9.4-38.6,19.3
		c-10.3,10.2-20.9,20.7-42.1,20.7s-31.8-10.5-42.1-20.7c-10-9.9-19.4-19.3-38.6-19.3c-19.1,0-28.6,9.4-38.6,19.3
		c-10.3,10.2-20.9,20.7-42.1,20.7c-21.2,0-31.8-10.5-42.1-20.7c-10-9.9-19.4-19.3-38.6-19.3c-19.1,0-28.6,9.4-38.6,19.3
		c-10.3,10.2-20.9,20.7-42.1,20.7c-21.2,0-31.8-10.5-42.1-20.7c-10-9.9-19.4-19.3-38.6-19.3c-19.1,0-28.6,9.4-38.6,19.3
		c-10.3,10.2-20.9,20.7-42.1,20.7c-21.2,0-31.8-10.5-42.1-20.7c-10-9.9-19.4-19.3-38.6-19.3c-19.1,0-28.6,9.4-38.6,19.3
		c-10.3,10.2-20.9,20.7-42.1,20.7s-31.8-10.5-42.1-20.7c-10-9.9-19.4-19.3-38.6-19.3c-19.1,0-28.6,9.4-38.6,19.3
		c-10.3,10.2-20.9,20.7-42.1,20.7c-21.2,0-31.8-10.5-42.1-20.7c-10-9.9-19.4-19.3-38.6-19.3v-5C76,56.2,86.6,66.8,96.9,77
		c10,9.9,19.4,19.3,38.6,19.3c19.1,0,28.6-9.4,38.6-19.3c10.3-10.2,20.9-20.7,42.1-20.7c21.2,0,31.8,10.5,42.1,20.7
		c10,9.9,19.4,19.3,38.6,19.3c19.1,0,28.6-9.4,38.6-19.3c10.3-10.2,20.9-20.7,42.1-20.7c21.2,0,31.8,10.5,42.1,20.7
		c10,9.9,19.4,19.3,38.6,19.3c19.1,0,28.6-9.4,38.6-19.3c10.3-10.2,20.9-20.7,42.1-20.7c21.2,0,31.8,10.5,42.1,20.7
		c10,9.9,19.4,19.3,38.6,19.3c19.1,0,28.6-9.4,38.6-19.3c10.3-10.2,20.9-20.7,42.1-20.7c21.2,0,31.8,10.5,42.1,20.7
		c10,9.9,19.4,19.3,38.6,19.3s28.6-9.4,38.6-19.3c10.3-10.2,20.9-20.7,42.1-20.7c21.2,0,31.8,10.5,42.1,20.7
		c10,9.9,19.4,19.3,38.6,19.3c19.1,0,28.6-9.4,38.6-19.3c10.3-10.2,20.9-20.7,42.1-20.7c21.2,0,31.8,10.5,42.1,20.7
		c10,9.9,19.4,19.3,38.6,19.3c19.1,0,28.6-9.4,38.6-19.3c10.3-10.2,20.9-20.7,42.1-20.7c21.2,0,31.8,10.5,42.1,20.7
		c10,9.9,19.4,19.3,38.6,19.3c19.1,0,28.6-9.4,38.6-19.3c10.3-10.2,20.9-20.7,42.1-20.7v5c-19.1,0-28.6,9.4-38.6,19.3
		C1296.4,90.7,1285.7,101.2,1264.5,101.2z"/>
</g>
<g>
	<g>
		<path fill="#333333" d="M1286.5,200.9c-18.5,0-27.8-12.8-35.4-23.1c-7.7-10.5-12.9-16.9-23.3-16.9c-10.3,0-15.6,6.4-23.3,16.9
			c-7.5,10.3-16.9,23.1-35.4,23.1c-18.5,0-27.8-12.8-35.4-23.1c-7.7-10.5-12.9-16.9-23.3-16.9s-15.6,6.4-23.3,16.9
			c-7.5,10.3-16.9,23.1-35.4,23.1c-18.5,0-27.8-12.8-35.4-23.1c-7.7-10.5-12.9-16.9-23.3-16.9c-10.3,0-15.6,6.4-23.3,16.9
			c-7.5,10.3-16.9,23.1-35.4,23.1s-27.8-12.8-35.4-23.1c-7.7-10.5-12.9-16.9-23.3-16.9c-10.3,0-15.6,6.4-23.3,16.9
			c-7.5,10.3-16.9,23.1-35.4,23.1c-18.5,0-27.8-12.8-35.4-23.1c-7.7-10.5-12.9-16.9-23.3-16.9c-10.3,0-15.6,6.4-23.3,16.9
			c-7.5,10.3-16.9,23.1-35.4,23.1c-18.5,0-27.8-12.8-35.4-23.1c-7.7-10.5-12.9-16.9-23.3-16.9c-10.3,0-15.6,6.4-23.3,16.9
			c-7.5,10.3-16.9,23.1-35.4,23.1c-18.5,0-27.8-12.8-35.4-23.1c-7.7-10.5-12.9-16.9-23.3-16.9c-10.3,0-15.6,6.4-23.3,16.9
			c-7.5,10.3-16.9,23.1-35.4,23.1c-18.5,0-27.8-12.8-35.4-23.1c-7.7-10.5-12.9-16.9-23.3-16.9c-10.3,0-15.6,6.4-23.3,16.9
			c-7.5,10.3-16.9,23.1-35.4,23.1c-18.5,0-27.8-12.8-35.4-23.1c-7.7-10.5-12.9-16.9-23.3-16.9s-15.6,6.4-23.3,16.9
			c-7.5,10.3-16.9,23.1-35.4,23.1c-18.5,0-27.8-12.8-35.4-23.1c-7.7-10.5-12.9-16.9-23.3-16.9s-15.6,6.4-23.3,16.9
			c-7.5,10.3-16.9,23.1-35.4,23.1c-18.5,0-27.8-12.8-35.4-23.1c-7.7-10.5-12.9-16.9-23.3-16.9v-15c18.5,0,27.8,12.8,35.4,23.1
			c7.7,10.5,12.9,16.9,23.3,16.9c10.3,0,15.6-6.4,23.3-16.9c7.5-10.3,16.9-23.1,35.4-23.1s27.8,12.8,35.4,23.1
			c7.7,10.5,12.9,16.9,23.3,16.9c10.3,0,15.6-6.4,23.3-16.9c7.5-10.3,16.9-23.1,35.4-23.1s27.8,12.8,35.4,23.1
			c7.7,10.5,12.9,16.9,23.3,16.9c10.3,0,15.6-6.4,23.3-16.9c7.5-10.3,16.9-23.1,35.4-23.1c18.5,0,27.8,12.8,35.4,23.1
			c7.7,10.5,12.9,16.9,23.3,16.9c10.3,0,15.6-6.4,23.3-16.9c7.5-10.3,16.9-23.1,35.4-23.1c18.5,0,27.8,12.8,35.4,23.1
			c7.7,10.5,12.9,16.9,23.3,16.9c10.3,0,15.6-6.4,23.3-16.9c7.5-10.3,16.9-23.1,35.4-23.1c18.5,0,27.8,12.8,35.4,23.1
			c7.7,10.5,12.9,16.9,23.3,16.9c10.3,0,15.6-6.4,23.3-16.9c7.5-10.3,16.9-23.1,35.4-23.1c18.5,0,27.8,12.8,35.4,23.1
			c7.7,10.5,12.9,16.9,23.3,16.9c10.3,0,15.6-6.4,23.3-16.9c7.5-10.3,16.9-23.1,35.4-23.1c18.5,0,27.8,12.8,35.4,23.1
			c7.7,10.5,12.9,16.9,23.3,16.9s15.6-6.4,23.3-16.9c7.5-10.3,16.9-23.1,35.4-23.1c18.5,0,27.8,12.8,35.4,23.1
			c7.7,10.5,12.9,16.9,23.3,16.9c10.3,0,15.6-6.4,23.3-16.9c7.5-10.3,16.9-23.1,35.4-23.1c18.5,0,27.8,12.8,35.4,23.1
			c7.7,10.5,12.9,16.9,23.3,16.9c10.3,0,15.6-6.4,23.3-16.9c7.5-10.3,16.9-23.1,35.4-23.1s27.8,12.8,35.4,23.1
			c7.7,10.5,12.9,16.9,23.3,16.9s15.6-6.4,23.3-16.9c7.5-10.3,16.9-23.1,35.4-23.1v15c-10.3,0-15.6,6.4-23.3,16.9
			C1314.4,188.1,1305,200.9,1286.5,200.9z"/>
	</g>
	<g>
		<path fill="#333333" d="M1286.5,220.9c-15.9,0-23.8-10.7-31.4-21c-7.2-9.8-13.9-19-27.3-19s-20.2,9.2-27.3,19
			c-7.6,10.3-15.4,21-31.3,21c-15.9,0-23.8-10.7-31.3-21c-7.2-9.8-13.9-19-27.3-19s-20.2,9.2-27.3,19c-7.6,10.3-15.4,21-31.3,21
			c-15.9,0-23.8-10.7-31.3-21c-7.2-9.8-13.9-19-27.3-19c-13.4,0-20.2,9.2-27.3,19c-7.6,10.3-15.4,21-31.3,21s-23.8-10.7-31.3-21
			c-7.2-9.8-13.9-19-27.3-19c-13.4,0-20.2,9.2-27.3,19c-7.6,10.3-15.4,21-31.3,21c-15.9,0-23.8-10.7-31.3-21
			c-7.2-9.8-13.9-19-27.3-19c-13.4,0-20.2,9.2-27.3,19c-7.6,10.3-15.4,21-31.3,21c-15.9,0-23.8-10.7-31.3-21
			c-7.2-9.8-13.9-19-27.3-19c-13.4,0-20.2,9.2-27.3,19c-7.6,10.3-15.4,21-31.3,21s-23.8-10.7-31.3-21c-7.2-9.8-13.9-19-27.3-19
			c-13.4,0-20.2,9.2-27.3,19c-7.6,10.3-15.4,21-31.3,21c-15.9,0-23.8-10.7-31.3-21c-7.2-9.8-13.9-19-27.3-19
			c-13.4,0-20.2,9.2-27.3,19c-7.6,10.3-15.4,21-31.3,21c-15.9,0-23.8-10.7-31.3-21c-7.2-9.8-13.9-19-27.3-19s-20.2,9.2-27.3,19
			c-7.6,10.3-15.4,21-31.3,21c-15.9,0-23.8-10.7-31.3-21c-7.2-9.8-13.9-19-27.3-19s-20.2,9.2-27.3,19c-7.6,10.3-15.4,21-31.3,21
			c-15.9,0-23.8-10.7-31.3-21c-7.2-9.8-13.9-19-27.3-19v-5c15.9,0,23.8,10.7,31.3,21c7.2,9.8,13.9,19,27.3,19
			c13.4,0,20.2-9.2,27.3-19c7.6-10.3,15.4-21,31.3-21s23.8,10.7,31.3,21c7.2,9.8,13.9,19,27.3,19c13.4,0,20.2-9.2,27.3-19
			c7.6-10.3,15.4-21,31.3-21s23.8,10.7,31.3,21c7.2,9.8,13.9,19,27.3,19c13.4,0,20.2-9.2,27.3-19c7.6-10.3,15.4-21,31.3-21
			c15.9,0,23.8,10.7,31.3,21c7.2,9.8,13.9,19,27.3,19c13.4,0,20.2-9.2,27.3-19c7.6-10.3,15.4-21,31.3-21c15.9,0,23.8,10.7,31.3,21
			c7.2,9.8,13.9,19,27.3,19c13.4,0,20.2-9.2,27.3-19c7.6-10.3,15.4-21,31.3-21c15.9,0,23.8,10.7,31.3,21c7.2,9.8,13.9,19,27.3,19
			c13.4,0,20.2-9.2,27.3-19c7.6-10.3,15.4-21,31.3-21c15.9,0,23.8,10.7,31.3,21c7.2,9.8,13.9,19,27.3,19c13.4,0,20.2-9.2,27.3-19
			c7.6-10.3,15.4-21,31.3-21c15.9,0,23.8,10.7,31.3,21c7.2,9.8,13.9,19,27.3,19c13.4,0,20.2-9.2,27.3-19c7.6-10.3,15.4-21,31.3-21
			c15.9,0,23.8,10.7,31.3,21c7.2,9.8,13.9,19,27.3,19c13.4,0,20.2-9.2,27.3-19c7.6-10.3,15.4-21,31.3-21s23.8,10.7,31.3,21
			c7.2,9.8,13.9,19,27.3,19c13.4,0,20.2-9.2,27.3-19c7.6-10.3,15.4-21,31.3-21c15.9,0,23.8,10.7,31.4,21c7.2,9.8,13.9,19,27.3,19
			s20.2-9.2,27.3-19c7.6-10.3,15.4-21,31.4-21v5c-13.4,0-20.2,9.2-27.3,19C1310.3,210.2,1302.5,220.9,1286.5,220.9z"/>
	</g>
</g>
<g>
	<path fill="#333333" d="M1329.8,293h-25v-10h25V293z M1279.8,293h-25v-10h25V293z M1229.8,293h-25v-10h25V293z M1179.8,293h-25v-10
		h25V293z M1129.8,293h-25v-10h25V293z M1079.8,293h-25v-10h25V293z M1029.8,293h-25v-10h25V293z M979.8,293h-25v-10h25V293z
		 M929.8,293h-25v-10h25V293z M879.8,293h-25v-10h25V293z M829.8,293h-25v-10h25V293z M779.8,293h-25v-10h25V293z M729.8,293h-25
		v-10h25V293z M679.8,293h-25v-10h25V293z M629.8,293h-25v-10h25V293z M579.8,293h-25v-10h25V293z M529.8,293h-25v-10h25V293z
		 M479.8,293h-25v-10h25V293z M429.8,293h-25v-10h25V293z M379.8,293h-25v-10h25V293z M329.8,293h-25v-10h25V293z M279.8,293h-25
		v-10h25V293z M229.8,293h-25v-10h25V293z M179.8,293h-25v-10h25V293z M129.8,293h-25v-10h25V293z M79.8,293h-25v-10h25V293z"/>
</g>
<g>
	<path fill="#333333" d="M1324.2,412.7h-5c-5.5,0-10-4.5-10-10s4.5-10,10-10h5c5.5,0,10,4.5,10,10S1329.8,412.7,1324.2,412.7z
		 M1279.2,412.7h-5c-5.5,0-10-4.5-10-10s4.5-10,10-10h5c5.5,0,10,4.5,10,10S1284.8,412.7,1279.2,412.7z M1234.2,412.7h-5
		c-5.5,0-10-4.5-10-10s4.5-10,10-10h5c5.5,0,10,4.5,10,10S1239.8,412.7,1234.2,412.7z M1189.2,412.7h-5c-5.5,0-10-4.5-10-10
		s4.5-10,10-10h5c5.5,0,10,4.5,10,10S1194.8,412.7,1189.2,412.7z M1144.2,412.7h-5c-5.5,0-10-4.5-10-10s4.5-10,10-10h5
		c5.5,0,10,4.5,10,10S1149.8,412.7,1144.2,412.7z M1099.2,412.7h-5c-5.5,0-10-4.5-10-10s4.5-10,10-10h5c5.5,0,10,4.5,10,10
		S1104.8,412.7,1099.2,412.7z M1054.2,412.7h-5c-5.5,0-10-4.5-10-10s4.5-10,10-10h5c5.5,0,10,4.5,10,10S1059.8,412.7,1054.2,412.7z
		 M1009.2,412.7h-5c-5.5,0-10-4.5-10-10s4.5-10,10-10h5c5.5,0,10,4.5,10,10S1014.8,412.7,1009.2,412.7z M964.2,412.7h-5
		c-5.5,0-10-4.5-10-10s4.5-10,10-10h5c5.5,0,10,4.5,10,10S969.8,412.7,964.2,412.7z M919.2,412.7h-5c-5.5,0-10-4.5-10-10
		s4.5-10,10-10h5c5.5,0,10,4.5,10,10S924.8,412.7,919.2,412.7z M874.2,412.7h-5c-5.5,0-10-4.5-10-10s4.5-10,10-10h5
		c5.5,0,10,4.5,10,10S879.8,412.7,874.2,412.7z M829.2,412.7h-5c-5.5,0-10-4.5-10-10s4.5-10,10-10h5c5.5,0,10,4.5,10,10
		S834.8,412.7,829.2,412.7z M784.2,412.7h-5c-5.5,0-10-4.5-10-10s4.5-10,10-10h5c5.5,0,10,4.5,10,10S789.8,412.7,784.2,412.7z
		 M739.2,412.7h-5c-5.5,0-10-4.5-10-10s4.5-10,10-10h5c5.5,0,10,4.5,10,10S744.8,412.7,739.2,412.7z M694.2,412.7h-5
		c-5.5,0-10-4.5-10-10s4.5-10,10-10h5c5.5,0,10,4.5,10,10S699.8,412.7,694.2,412.7z M649.2,412.7h-5c-5.5,0-10-4.5-10-10
		s4.5-10,10-10h5c5.5,0,10,4.5,10,10S654.8,412.7,649.2,412.7z M604.2,412.7h-5c-5.5,0-10-4.5-10-10s4.5-10,10-10h5
		c5.5,0,10,4.5,10,10S609.8,412.7,604.2,412.7z M559.2,412.7h-5c-5.5,0-10-4.5-10-10s4.5-10,10-10h5c5.5,0,10,4.5,10,10
		S564.8,412.7,559.2,412.7z M514.2,412.7h-5c-5.5,0-10-4.5-10-10s4.5-10,10-10h5c5.5,0,10,4.5,10,10S519.8,412.7,514.2,412.7z
		 M469.2,412.7h-5c-5.5,0-10-4.5-10-10s4.5-10,10-10h5c5.5,0,10,4.5,10,10S474.8,412.7,469.2,412.7z M424.2,412.7h-5
		c-5.5,0-10-4.5-10-10s4.5-10,10-10h5c5.5,0,10,4.5,10,10S429.8,412.7,424.2,412.7z M379.2,412.7h-5c-5.5,0-10-4.5-10-10
		s4.5-10,10-10h5c5.5,0,10,4.5,10,10S384.8,412.7,379.2,412.7z M334.2,412.7h-5c-5.5,0-10-4.5-10-10s4.5-10,10-10h5
		c5.5,0,10,4.5,10,10S339.8,412.7,334.2,412.7z M289.2,412.7h-5c-5.5,0-10-4.5-10-10s4.5-10,10-10h5c5.5,0,10,4.5,10,10
		S294.8,412.7,289.2,412.7z M244.2,412.7h-5c-5.5,0-10-4.5-10-10s4.5-10,10-10h5c5.5,0,10,4.5,10,10S249.8,412.7,244.2,412.7z
		 M199.2,412.7h-5c-5.5,0-10-4.5-10-10s4.5-10,10-10h5c5.5,0,10,4.5,10,10S204.8,412.7,199.2,412.7z M154.2,412.7h-5
		c-5.5,0-10-4.5-10-10s4.5-10,10-10h5c5.5,0,10,4.5,10,10S159.8,412.7,154.2,412.7z M109.2,412.7h-5c-5.5,0-10-4.5-10-10
		s4.5-10,10-10h5c5.5,0,10,4.5,10,10S114.8,412.7,109.2,412.7z M64.2,412.7h-5c-5.5,0-10-4.5-10-10s4.5-10,10-10h5
		c5.5,0,10,4.5,10,10S69.8,412.7,64.2,412.7z"/>
</g>
<g>
	<g>
		<g>
			<path d="M75.1,517.3l-20.2,26.8h10.6l20.2-26.8l-20.2-26.8H54.8L75.1,517.3z M99.8,517.3l-20.2,26.8h10.6l20.2-26.8l-20.2-26.8
				H79.5L99.8,517.3z"/>
			<path d="M144.8,490.5H134l-20,26.8l20,26.8h10.8l-20.3-26.8L144.8,490.5z M169.6,490.5h-10.8l-20,26.8l20,26.8h10.8l-20.3-26.8
				L169.6,490.5z"/>
		</g>
		<path d="M183.8,518.9c0,4.1-3.5,7.5-7.8,7.5c-4.3,0-7.8-3.4-7.8-7.5c0-4.1,3.5-7.5,7.8-7.5C180.3,511.4,183.8,514.8,183.8,518.9z"
			/>
	</g>
	<g>
		<g>
			<path d="M204.1,517.3L184,544.1h10.6l20.2-26.8l-20.2-26.8h-10.8L204.1,517.3z M228.8,517.3l-20.2,26.8h10.6l20.2-26.8
				l-20.2-26.8h-10.8L228.8,517.3z"/>
			<path d="M273.8,490.5h-10.8l-20,26.8l20,26.8h10.8l-20.3-26.8L273.8,490.5z M298.7,490.5h-10.8l-20,26.8l20,26.8h10.8l-20.3-26.8
				L298.7,490.5z"/>
		</g>
		<path d="M312.9,518.9c0,4.1-3.5,7.5-7.8,7.5s-7.8-3.4-7.8-7.5c0-4.1,3.5-7.5,7.8-7.5S312.9,514.8,312.9,518.9z"/>
	</g>
	<g>
		<g>
			<path d="M333.2,517.3L313,544.1h10.6l20.2-26.8l-20.2-26.8h-10.8L333.2,517.3z M357.9,517.3l-20.2,26.8h10.6l20.2-26.8
				l-20.2-26.8h-10.8L357.9,517.3z"/>
			<path d="M402.9,490.5h-10.8l-20,26.8l20,26.8h10.8l-20.3-26.8L402.9,490.5z M427.7,490.5H417l-20,26.8l20,26.8h10.8l-20.3-26.8
				L427.7,490.5z"/>
		</g>
		<path d="M441.9,518.9c0,4.1-3.5,7.5-7.8,7.5s-7.8-3.4-7.8-7.5c0-4.1,3.5-7.5,7.8-7.5S441.9,514.8,441.9,518.9z"/>
	</g>
	<g>
		<g>
			<path d="M462.2,517.3l-20.2,26.8h10.6l20.2-26.8l-20.2-26.8h-10.8L462.2,517.3z M486.9,517.3l-20.2,26.8h10.6l20.2-26.8
				l-20.2-26.8h-10.8L486.9,517.3z"/>
			<path d="M531.9,490.5h-10.8l-20,26.8l20,26.8h10.8l-20.3-26.8L531.9,490.5z M556.8,490.5H546l-20,26.8l20,26.8h10.8l-20.3-26.8
				L556.8,490.5z"/>
		</g>
		<path d="M571,518.9c0,4.1-3.5,7.5-7.8,7.5s-7.8-3.4-7.8-7.5c0-4.1,3.5-7.5,7.8-7.5S571,514.8,571,518.9z"/>
	</g>
	<g>
		<g>
			<path d="M591.3,517.3l-20.2,26.8h10.6l20.2-26.8l-20.2-26.8H571L591.3,517.3z M616,517.3l-20.2,26.8h10.6l20.2-26.8l-20.2-26.8
				h-10.8L616,517.3z"/>
			<path d="M660.9,490.5h-10.8l-20,26.8l20,26.8h10.8l-20.3-26.8L660.9,490.5z M685.8,490.5H675l-20,26.8l20,26.8h10.8l-20.3-26.8
				L685.8,490.5z"/>
		</g>
		<path d="M700,518.9c0,4.1-3.5,7.5-7.8,7.5s-7.8-3.4-7.8-7.5c0-4.1,3.5-7.5,7.8-7.5S700,514.8,700,518.9z"/>
	</g>
	<g>
		<g>
			<path d="M720.3,517.3l-20.2,26.8h10.6l20.2-26.8l-20.2-26.8H700L720.3,517.3z M745,517.3l-20.2,26.8h10.6l20.2-26.8l-20.2-26.8
				h-10.8L745,517.3z"/>
			<path d="M790,490.5h-10.8l-20,26.8l20,26.8H790l-20.3-26.8L790,490.5z M814.8,490.5h-10.8l-20,26.8l20,26.8h10.8l-20.3-26.8
				L814.8,490.5z"/>
		</g>
		<path d="M829,518.9c0,4.1-3.5,7.5-7.8,7.5s-7.8-3.4-7.8-7.5c0-4.1,3.5-7.5,7.8-7.5S829,514.8,829,518.9z"/>
	</g>
	<g>
		<g>
			<path d="M849.3,517.3l-20.2,26.8h10.6l20.2-26.8l-20.2-26.8H829L849.3,517.3z M874.1,517.3l-20.2,26.8h10.6l20.2-26.8l-20.2-26.8
				h-10.8L874.1,517.3z"/>
			<path d="M919,490.5h-10.8l-20,26.8l20,26.8H919l-20.3-26.8L919,490.5z M943.9,490.5h-10.8l-20,26.8l20,26.8h10.8l-20.3-26.8
				L943.9,490.5z"/>
		</g>
		<path d="M958.1,518.9c0,4.1-3.5,7.5-7.8,7.5s-7.8-3.4-7.8-7.5c0-4.1,3.5-7.5,7.8-7.5S958.1,514.8,958.1,518.9z"/>
	</g>
	<g>
		<g>
			<path d="M978.4,517.3l-20.2,26.8h10.6l20.2-26.8l-20.2-26.8h-10.8L978.4,517.3z M1003.1,517.3l-20.2,26.8h10.6l20.2-26.8
				l-20.2-26.8h-10.8L1003.1,517.3z"/>
			<path d="M1048.1,490.5h-10.8l-20,26.8l20,26.8h10.8l-20.3-26.8L1048.1,490.5z M1072.9,490.5h-10.8l-20,26.8l20,26.8h10.8
				l-20.3-26.8L1072.9,490.5z"/>
		</g>
		<path d="M1087.1,518.9c0,4.1-3.5,7.5-7.8,7.5c-4.3,0-7.8-3.4-7.8-7.5c0-4.1,3.5-7.5,7.8-7.5
			C1083.6,511.4,1087.1,514.8,1087.1,518.9z"/>
	</g>
	<g>
		<g>
			<path d="M1107.4,517.3l-20.2,26.8h10.6l20.2-26.8l-20.2-26.8h-10.8L1107.4,517.3z M1132.1,517.3l-20.2,26.8h10.6l20.2-26.8
				l-20.2-26.8h-10.8L1132.1,517.3z"/>
			<path d="M1177.1,490.5h-10.8l-20,26.8l20,26.8h10.8l-20.3-26.8L1177.1,490.5z M1202,490.5h-10.8l-20,26.8l20,26.8h10.8
				l-20.3-26.8L1202,490.5z"/>
		</g>
		<path d="M1216.2,518.9c0,4.1-3.5,7.5-7.8,7.5c-4.3,0-7.8-3.4-7.8-7.5c0-4.1,3.5-7.5,7.8-7.5
			C1212.7,511.4,1216.2,514.8,1216.2,518.9z"/>
	</g>
	<g>
		<g>
			<path d="M1236.5,517.3l-20.2,26.8h10.6l20.2-26.8l-20.2-26.8h-10.8L1236.5,517.3z M1261.2,517.3l-20.2,26.8h10.6l20.2-26.8
				l-20.2-26.8h-10.8L1261.2,517.3z"/>
			<path d="M1306.1,490.5h-10.8l-20,26.8l20,26.8h10.8l-20.3-26.8L1306.1,490.5z M1331,490.5h-10.8l-20,26.8l20,26.8h10.8
				l-20.3-26.8L1331,490.5z"/>
		</g>
		<path d="M1345.2,518.9c0,4.1-3.5,7.5-7.8,7.5c-4.3,0-7.8-3.4-7.8-7.5c0-4.1,3.5-7.5,7.8-7.5
			C1341.7,511.4,1345.2,514.8,1345.2,518.9z"/>
	</g>
</g>
<g>
	<g>
		<path d="M73.8,632l-18.9,26.8h9.9L83.7,632l-18.9-26.8H54.8L73.8,632z M96.9,632l-18.9,26.8H88l18.9-26.8L88,605.1H77.9L96.9,632z
			"/>
		<path d="M139.1,605.1H129L110.2,632l18.7,26.8h10.1L120,632L139.1,605.1z M162.3,605.1h-10.1L133.5,632l18.7,26.8h10.1l-19-26.8
			L162.3,605.1z"/>
	</g>
	<g>
		<path d="M181.3,632l-18.9,26.8h9.9l18.9-26.8l-18.9-26.8h-10.1L181.3,632z M204.5,632l-18.9,26.8h9.9l18.9-26.8l-18.9-26.8h-10.1
			L204.5,632z"/>
		<path d="M246.6,605.1h-10.1L217.8,632l18.7,26.8h10.1l-19-26.8L246.6,605.1z M269.9,605.1h-10.1L241.1,632l18.7,26.8h10.1
			l-19-26.8L269.9,605.1z"/>
	</g>
	<g>
		<path d="M288.9,632L270,658.8h9.9l18.9-26.8l-18.9-26.8h-10.1L288.9,632z M312,632l-18.9,26.8h9.9l18.9-26.8l-18.9-26.8H293
			L312,632z"/>
		<path d="M354.1,605.1H344L325.3,632l18.7,26.8h10.1l-19-26.8L354.1,605.1z M377.4,605.1h-10.1L348.6,632l18.7,26.8h10.1l-19-26.8
			L377.4,605.1z"/>
	</g>
	<g>
		<path d="M396.4,632l-18.9,26.8h9.9l18.9-26.8l-18.9-26.8h-10.1L396.4,632z M419.5,632l-18.9,26.8h9.9l18.9-26.8l-18.9-26.8h-10.1
			L419.5,632z"/>
		<path d="M461.7,605.1h-10.1L432.8,632l18.7,26.8h10.1l-19-26.8L461.7,605.1z M484.9,605.1h-10.1L456.1,632l18.7,26.8h10.1
			l-19-26.8L484.9,605.1z"/>
	</g>
	<g>
		<path d="M503.9,632l-18.9,26.8h9.9l18.9-26.8L495,605.1h-10.1L503.9,632z M527.1,632l-18.9,26.8h9.9L537,632l-18.9-26.8h-10.1
			L527.1,632z"/>
		<path d="M569.2,605.1h-10.1L540.4,632l18.7,26.8h10.1l-19-26.8L569.2,605.1z M592.5,605.1h-10.1L563.7,632l18.7,26.8h10.1
			l-19-26.8L592.5,605.1z"/>
	</g>
	<g>
		<path d="M611.5,632l-18.9,26.8h9.9l18.9-26.8l-18.9-26.8h-10.1L611.5,632z M634.6,632l-18.9,26.8h9.9l18.9-26.8l-18.9-26.8h-10.1
			L634.6,632z"/>
		<path d="M676.7,605.1h-10.1L647.9,632l18.7,26.8h10.1l-19-26.8L676.7,605.1z M700,605.1h-10.1L671.2,632l18.7,26.8H700L681,632
			L700,605.1z"/>
	</g>
	<g>
		<path d="M719,632l-18.9,26.8h9.9l18.9-26.8l-18.9-26.8H700L719,632z M742.1,632l-18.9,26.8h9.9l18.9-26.8l-18.9-26.8h-10.1
			L742.1,632z"/>
		<path d="M784.3,605.1h-10.1L755.4,632l18.7,26.8h10.1l-19-26.8L784.3,605.1z M807.5,605.1h-10.1L778.7,632l18.7,26.8h10.1
			l-19-26.8L807.5,605.1z"/>
	</g>
	<g>
		<path d="M826.5,632l-18.9,26.8h9.9l18.9-26.8l-18.9-26.8h-10.1L826.5,632z M849.7,632l-18.9,26.8h9.9l18.9-26.8l-18.9-26.8h-10.1
			L849.7,632z"/>
		<path d="M891.8,605.1h-10.1L863,632l18.7,26.8h10.1l-19-26.8L891.8,605.1z M915.1,605.1H905L886.3,632l18.7,26.8h10.1l-19-26.8
			L915.1,605.1z"/>
	</g>
	<g>
		<path d="M934.1,632l-18.9,26.8h9.9L944,632l-18.9-26.8h-10.1L934.1,632z M957.2,632l-18.9,26.8h9.9l18.9-26.8l-18.9-26.8h-10.1
			L957.2,632z"/>
		<path d="M999.3,605.1h-10.1L970.5,632l18.7,26.8h10.1l-19-26.8L999.3,605.1z M1022.6,605.1h-10.1L993.8,632l18.7,26.8h10.1
			l-19-26.8L1022.6,605.1z"/>
	</g>
	<g>
		<path d="M1041.6,632l-18.9,26.8h9.9l18.9-26.8l-18.9-26.8h-10.1L1041.6,632z M1064.7,632l-18.9,26.8h9.9l18.9-26.8l-18.9-26.8
			h-10.1L1064.7,632z"/>
		<path d="M1106.9,605.1h-10.1l-18.7,26.8l18.7,26.8h10.1l-19-26.8L1106.9,605.1z M1130.1,605.1h-10.1l-18.7,26.8l18.7,26.8h10.1
			l-19-26.8L1130.1,605.1z"/>
	</g>
	<g>
		<path d="M1149.2,632l-18.9,26.8h9.9l18.9-26.8l-18.9-26.8h-10.1L1149.2,632z M1172.3,632l-18.9,26.8h9.9l18.9-26.8l-18.9-26.8
			h-10.1L1172.3,632z"/>
		<path d="M1214.4,605.1h-10.1l-18.7,26.8l18.7,26.8h10.1l-19-26.8L1214.4,605.1z M1237.7,605.1h-10.1l-18.7,26.8l18.7,26.8h10.1
			l-19-26.8L1237.7,605.1z"/>
	</g>
	<g>
		<path d="M1256.7,632l-18.9,26.8h9.9l18.9-26.8l-18.9-26.8h-10.1L1256.7,632z M1279.8,632l-18.9,26.8h9.9l18.9-26.8l-18.9-26.8
			h-10.1L1279.8,632z"/>
		<path d="M1321.9,605.1h-10.1l-18.7,26.8l18.7,26.8h10.1l-19-26.8L1321.9,605.1z M1345.2,605.1h-10.1l-18.7,26.8l18.7,26.8h10.1
			l-19-26.8L1345.2,605.1z"/>
	</g>
</g>
<g>
	<g>
		<path d="M54.8,750.4h19.4v16.8h5.5v-16.8h8v16.8h5.5v-14l33.6,19.3v-9.9L104.2,751c-3.8-1.8-7.2-3.2-10.3-4.3v-0.3
			c3.3-1.3,6.3-2.6,10.1-4.3l22.8-11.2v-10.1l-33.6,18.1v-14h-5.5v16.7h-8v-16.7h-5.5v16.7H54.8V750.4z"/>
		<path d="M198.2,741.5h-19.4v-16.7h-5.5v16.7h-8v-16.7h-5.5v14l-33.6-18.1v10.1L149,742c3.8,1.7,6.8,3,10.1,4.3v0.3
			c-3.1,1.1-6.5,2.5-10.3,4.3l-22.6,11.7v9.9l33.6-19.3v14h5.5v-16.8h8v16.8h5.5v-16.8h19.4V741.5z"/>
	</g>
	<g>
		<path d="M198.2,750.4h19.4v16.8h5.5v-16.8h8v16.8h5.5v-14l33.6,19.3v-9.9L247.6,751c-3.8-1.8-7.2-3.2-10.3-4.3v-0.3
			c3.3-1.3,6.3-2.6,10.1-4.3l22.8-11.2v-10.1l-33.6,18.1v-14h-5.5v16.7h-8v-16.7h-5.5v16.7h-19.4V750.4z"/>
		<path d="M341.6,741.5h-19.4v-16.7h-5.5v16.7h-8v-16.7h-5.5v14l-33.6-18.1v10.1l22.8,11.2c3.8,1.7,6.8,3,10.1,4.3v0.3
			c-3.1,1.1-6.5,2.5-10.3,4.3l-22.6,11.7v9.9l33.6-19.3v14h5.5v-16.8h8v16.8h5.5v-16.8h19.4V741.5z"/>
	</g>
	<g>
		<path d="M341.6,750.4h19.4v16.8h5.5v-16.8h8v16.8h5.5v-14l33.6,19.3v-9.9L390.9,751c-3.8-1.8-7.2-3.2-10.3-4.3v-0.3
			c3.3-1.3,6.3-2.6,10.1-4.3l22.8-11.2v-10.1L380,738.8v-14h-5.5v16.7h-8v-16.7h-5.5v16.7h-19.4V750.4z"/>
		<path d="M484.9,741.5h-19.4v-16.7H460v16.7h-8v-16.7h-5.5v14L413,720.6v10.1l22.8,11.2c3.8,1.7,6.8,3,10.1,4.3v0.3
			c-3.1,1.1-6.5,2.5-10.3,4.3L413,762.6v9.9l33.6-19.3v14h5.5v-16.8h8v16.8h5.5v-16.8h19.4V741.5z"/>
	</g>
	<g>
		<path d="M484.9,750.4h19.4v16.8h5.5v-16.8h8v16.8h5.5v-14l33.6,19.3v-9.9L534.3,751c-3.8-1.8-7.2-3.2-10.3-4.3v-0.3
			c3.3-1.3,6.3-2.6,10.1-4.3l22.8-11.2v-10.1l-33.6,18.1v-14h-5.5v16.7h-8v-16.7h-5.5v16.7h-19.4V750.4z"/>
		<path d="M628.3,741.5h-19.4v-16.7h-5.5v16.7h-8v-16.7h-5.5v14l-33.6-18.1v10.1l22.8,11.2c3.8,1.7,6.8,3,10.1,4.3v0.3
			c-3.1,1.1-6.5,2.5-10.3,4.3l-22.6,11.7v9.9l33.6-19.3v14h5.5v-16.8h8v16.8h5.5v-16.8h19.4V741.5z"/>
	</g>
	<g>
		<path d="M628.3,750.4h19.4v16.8h5.5v-16.8h8v16.8h5.5v-14l33.6,19.3v-9.9L677.7,751c-3.8-1.8-7.2-3.2-10.3-4.3v-0.3
			c3.3-1.3,6.3-2.6,10.1-4.3l22.8-11.2v-10.1l-33.6,18.1v-14h-5.5v16.7h-8v-16.7h-5.5v16.7h-19.4V750.4z"/>
		<path d="M771.7,741.5h-19.4v-16.7h-5.5v16.7h-8v-16.7h-5.5v14l-33.6-18.1v10.1l22.8,11.2c3.8,1.7,6.8,3,10.1,4.3v0.3
			c-3.1,1.1-6.5,2.5-10.3,4.3l-22.6,11.7v9.9l33.6-19.3v14h5.5v-16.8h8v16.8h5.5v-16.8h19.4V741.5z"/>
	</g>
	<g>
		<path d="M771.7,750.4h19.4v16.8h5.5v-16.8h8v16.8h5.5v-14l33.6,19.3v-9.9L821.1,751c-3.8-1.8-7.2-3.2-10.3-4.3v-0.3
			c3.3-1.3,6.3-2.6,10.1-4.3l22.8-11.2v-10.1l-33.6,18.1v-14h-5.5v16.7h-8v-16.7h-5.5v16.7h-19.4V750.4z"/>
		<path d="M915.1,741.5h-19.4v-16.7h-5.5v16.7h-8v-16.7h-5.5v14l-33.6-18.1v10.1l22.8,11.2c3.8,1.7,6.8,3,10.1,4.3v0.3
			c-3.1,1.1-6.5,2.5-10.3,4.3l-22.6,11.7v9.9l33.6-19.3v14h5.5v-16.8h8v16.8h5.5v-16.8h19.4V741.5z"/>
	</g>
	<g>
		<path d="M915.1,750.4h19.4v16.8h5.5v-16.8h8v16.8h5.5v-14l33.6,19.3v-9.9L964.5,751c-3.8-1.8-7.2-3.2-10.3-4.3v-0.3
			c3.3-1.3,6.3-2.6,10.1-4.3l22.8-11.2v-10.1l-33.6,18.1v-14H948v16.7h-8v-16.7h-5.5v16.7h-19.4V750.4z"/>
		<path d="M1058.4,741.5h-19.4v-16.7h-5.5v16.7h-8v-16.7h-5.5v14l-33.6-18.1v10.1l22.8,11.2c3.8,1.7,6.8,3,10.1,4.3v0.3
			c-3.1,1.1-6.5,2.5-10.3,4.3l-22.6,11.7v9.9l33.6-19.3v14h5.5v-16.8h8v16.8h5.5v-16.8h19.4V741.5z"/>
	</g>
	<g>
		<path d="M1058.4,750.4h19.4v16.8h5.5v-16.8h8v16.8h5.5v-14l33.6,19.3v-9.9l-22.6-11.7c-3.8-1.8-7.2-3.2-10.3-4.3v-0.3
			c3.3-1.3,6.3-2.6,10.1-4.3l22.8-11.2v-10.1l-33.6,18.1v-14h-5.5v16.7h-8v-16.7h-5.5v16.7h-19.4V750.4z"/>
		<path d="M1201.8,741.5h-19.4v-16.7h-5.5v16.7h-8v-16.7h-5.5v14l-33.6-18.1v10.1l22.8,11.2c3.8,1.7,6.8,3,10.1,4.3v0.3
			c-3.1,1.1-6.5,2.5-10.3,4.3l-22.6,11.7v9.9l33.6-19.3v14h5.5v-16.8h8v16.8h5.5v-16.8h19.4V741.5z"/>
	</g>
	<g>
		<path d="M1201.8,750.4h19.4v16.8h5.5v-16.8h8v16.8h5.5v-14l33.6,19.3v-9.9l-22.6-11.7c-3.8-1.8-7.2-3.2-10.3-4.3v-0.3
			c3.3-1.3,6.3-2.6,10.1-4.3l22.8-11.2v-10.1l-33.6,18.1v-14h-5.5v16.7h-8v-16.7h-5.5v16.7h-19.4V750.4z"/>
		<path d="M1345.2,741.5h-19.4v-16.7h-5.5v16.7h-8v-16.7h-5.5v14l-33.6-18.1v10.1L1296,742c3.8,1.7,6.8,3,10.1,4.3v0.3
			c-3.1,1.1-6.5,2.5-10.3,4.3l-22.6,11.7v9.9l33.6-19.3v14h5.5v-16.8h8v16.8h5.5v-16.8h19.4V741.5z"/>
	</g>
</g>
<g>
	<g>
		<g>
			<path fill="#424242" d="M93.2,872.8c-8.5,0-16-4.6-19.9-11.5c4-6.9,11.4-11.5,19.9-11.5c0-8.5,4.6-15.9,11.5-19.9
				c6.9,4,11.5,11.4,11.5,19.9c8.5,0,16,4.7,19.9,11.5c-4,6.9-11.4,11.5-19.9,11.5h0c0,8.5-4.6,15.9-11.5,19.9
				C97.8,888.7,93.2,881.3,93.2,872.8z"/>
		</g>
		<g>
			<path fill="#333333" d="M160.3,854.1c-4.2,0-7.4,3-7.4,7.2c0,4.2,3.2,7.2,7.4,7.2c4.2,0,7.4-3,7.4-7.2
				C167.7,857,164.5,854.1,160.3,854.1z"/>
			<path fill="#333333" d="M194.7,854.1c-4.2,0-7.4,3-7.4,7.2c0,4.2,3.2,7.2,7.4,7.2s7.4-3,7.4-7.2
				C202.1,857,198.9,854.1,194.7,854.1z"/>
			<path fill="#333333" d="M229.1,854.1c-4.2,0-7.4,3-7.4,7.2c0,4.2,3.2,7.2,7.4,7.2c4.2,0,7.4-3,7.4-7.2
				C236.5,857,233.3,854.1,229.1,854.1z"/>
		</g>
	</g>
	<g>
		<g>
			<path fill="#424242" d="M274.9,872.8c-8.5,0-16-4.6-19.9-11.5c4-6.9,11.4-11.5,19.9-11.5c0-8.5,4.6-15.9,11.5-19.9
				c6.9,4,11.5,11.4,11.5,19.9c8.5,0,16,4.7,19.9,11.5c-4,6.9-11.4,11.5-19.9,11.5h0c0,8.5-4.6,15.9-11.5,19.9
				C279.5,888.7,274.9,881.3,274.9,872.8z"/>
		</g>
		<g>
			<path fill="#333333" d="M342,854.1c-4.2,0-7.4,3-7.4,7.2c0,4.2,3.2,7.2,7.4,7.2c4.2,0,7.4-3,7.4-7.2
				C349.4,857,346.2,854.1,342,854.1z"/>
			<path fill="#333333" d="M376.4,854.1c-4.2,0-7.4,3-7.4,7.2c0,4.2,3.2,7.2,7.4,7.2c4.2,0,7.4-3,7.4-7.2
				C383.8,857,380.6,854.1,376.4,854.1z"/>
			<path fill="#333333" d="M410.8,854.1c-4.2,0-7.4,3-7.4,7.2c0,4.2,3.2,7.2,7.4,7.2c4.2,0,7.4-3,7.4-7.2
				C418.2,857,415,854.1,410.8,854.1z"/>
		</g>
	</g>
	<g>
		<g>
			<path fill="#424242" d="M456.6,872.8c-8.5,0-16-4.6-19.9-11.5c4-6.9,11.4-11.5,19.9-11.5c0-8.5,4.6-15.9,11.5-19.9
				c6.9,4,11.5,11.4,11.5,19.9c8.5,0,16,4.7,19.9,11.5c-4,6.9-11.4,11.5-19.9,11.5h0c0,8.5-4.6,15.9-11.5,19.9
				C461.2,888.7,456.6,881.3,456.6,872.8z"/>
		</g>
		<g>
			<path fill="#333333" d="M523.7,854.1c-4.2,0-7.4,3-7.4,7.2c0,4.2,3.2,7.2,7.4,7.2c4.2,0,7.4-3,7.4-7.2
				C531.1,857,527.9,854.1,523.7,854.1z"/>
			<path fill="#333333" d="M558.1,854.1c-4.2,0-7.4,3-7.4,7.2c0,4.2,3.2,7.2,7.4,7.2c4.2,0,7.4-3,7.4-7.2
				C565.5,857,562.3,854.1,558.1,854.1z"/>
			<path fill="#333333" d="M592.5,854.1c-4.2,0-7.4,3-7.4,7.2c0,4.2,3.2,7.2,7.4,7.2s7.4-3,7.4-7.2
				C599.9,857,596.7,854.1,592.5,854.1z"/>
		</g>
	</g>
	<g>
		<g>
			<path fill="#424242" d="M638.3,872.8c-8.5,0-16-4.6-19.9-11.5c4-6.9,11.4-11.5,19.9-11.5c0-8.5,4.6-15.9,11.5-19.9
				c6.9,4,11.5,11.4,11.5,19.9c8.5,0,16,4.7,19.9,11.5c-4,6.9-11.4,11.5-19.9,11.5h0c0,8.5-4.6,15.9-11.5,19.9
				C643,888.7,638.3,881.3,638.3,872.8z"/>
		</g>
		<g>
			<path fill="#333333" d="M705.4,854.1c-4.2,0-7.4,3-7.4,7.2c0,4.2,3.2,7.2,7.4,7.2c4.2,0,7.4-3,7.4-7.2
				C712.8,857,709.6,854.1,705.4,854.1z"/>
			<path fill="#333333" d="M739.8,854.1c-4.2,0-7.4,3-7.4,7.2c0,4.2,3.2,7.2,7.4,7.2c4.2,0,7.4-3,7.4-7.2
				C747.2,857,744,854.1,739.8,854.1z"/>
			<path fill="#333333" d="M774.2,854.1c-4.2,0-7.4,3-7.4,7.2c0,4.2,3.2,7.2,7.4,7.2c4.2,0,7.4-3,7.4-7.2
				C781.6,857,778.4,854.1,774.2,854.1z"/>
		</g>
	</g>
	<g>
		<g>
			<path fill="#424242" d="M820,872.8c-8.5,0-16-4.6-19.9-11.5c4-6.9,11.4-11.5,19.9-11.5c0-8.5,4.6-15.9,11.5-19.9
				c6.9,4,11.5,11.4,11.5,19.9c8.5,0,16,4.7,19.9,11.5c-4,6.9-11.4,11.5-19.9,11.5h0c0,8.5-4.6,15.9-11.5,19.9
				C824.7,888.7,820,881.3,820,872.8z"/>
		</g>
		<g>
			<path fill="#333333" d="M887.1,854.1c-4.2,0-7.4,3-7.4,7.2c0,4.2,3.2,7.2,7.4,7.2c4.2,0,7.4-3,7.4-7.2
				C894.5,857,891.3,854.1,887.1,854.1z"/>
			<path fill="#333333" d="M921.5,854.1c-4.2,0-7.4,3-7.4,7.2c0,4.2,3.2,7.2,7.4,7.2s7.4-3,7.4-7.2
				C928.9,857,925.7,854.1,921.5,854.1z"/>
			<path fill="#333333" d="M955.9,854.1c-4.2,0-7.4,3-7.4,7.2c0,4.2,3.2,7.2,7.4,7.2c4.2,0,7.4-3,7.4-7.2
				C963.3,857,960.1,854.1,955.9,854.1z"/>
		</g>
	</g>
	<g>
		<g>
			<path fill="#424242" d="M1001.7,872.8c-8.5,0-16-4.6-19.9-11.5c4-6.9,11.4-11.5,19.9-11.5c0-8.5,4.6-15.9,11.5-19.9
				c6.9,4,11.5,11.4,11.5,19.9c8.5,0,16,4.7,19.9,11.5c-4,6.9-11.4,11.5-19.9,11.5h0c0,8.5-4.6,15.9-11.5,19.9
				C1006.4,888.7,1001.7,881.3,1001.7,872.8z"/>
		</g>
		<g>
			<path fill="#333333" d="M1068.8,854.1c-4.2,0-7.4,3-7.4,7.2c0,4.2,3.2,7.2,7.4,7.2c4.2,0,7.4-3,7.4-7.2
				C1076.3,857,1073,854.1,1068.8,854.1z"/>
			<path fill="#333333" d="M1103.2,854.1c-4.2,0-7.4,3-7.4,7.2c0,4.2,3.2,7.2,7.4,7.2c4.2,0,7.4-3,7.4-7.2
				C1110.7,857,1107.4,854.1,1103.2,854.1z"/>
			<path fill="#333333" d="M1137.6,854.1c-4.2,0-7.4,3-7.4,7.2c0,4.2,3.2,7.2,7.4,7.2c4.2,0,7.4-3,7.4-7.2
				C1145.1,857,1141.8,854.1,1137.6,854.1z"/>
		</g>
	</g>
	<g>
		<g>
			<path fill="#424242" d="M1183.4,872.8c-8.5,0-16-4.6-19.9-11.5c4-6.9,11.4-11.5,19.9-11.5c0-8.5,4.6-15.9,11.5-19.9
				c6.9,4,11.5,11.4,11.5,19.9c8.5,0,16,4.7,19.9,11.5c-4,6.9-11.4,11.5-19.9,11.5h0c0,8.5-4.6,15.9-11.5,19.9
				C1188.1,888.7,1183.4,881.3,1183.4,872.8z"/>
		</g>
		<g>
			<path fill="#333333" d="M1250.5,854.1c-4.2,0-7.4,3-7.4,7.2c0,4.2,3.2,7.2,7.4,7.2c4.2,0,7.4-3,7.4-7.2
				C1258,857,1254.7,854.1,1250.5,854.1z"/>
			<path fill="#333333" d="M1284.9,854.1c-4.2,0-7.4,3-7.4,7.2c0,4.2,3.2,7.2,7.4,7.2c4.2,0,7.4-3,7.4-7.2
				C1292.4,857,1289.2,854.1,1284.9,854.1z"/>
			<path fill="#333333" d="M1319.3,854.1c-4.2,0-7.4,3-7.4,7.2c0,4.2,3.2,7.2,7.4,7.2c4.2,0,7.4-3,7.4-7.2
				C1326.8,857,1323.6,854.1,1319.3,854.1z"/>
		</g>
	</g>
</g>
</svg>
