<?xml version="1.0" encoding="UTF-8"?>
<svg width="170px" height="120px" viewBox="0 0 170 120" version="1.1" xmlns="http://www.w3.org/2000/svg" xmlns:xlink="http://www.w3.org/1999/xlink">
    <!-- Generator: Sketch 63.1 (92452) - https://sketch.com -->
    <title>Size / Ticket / Original / Inactive</title>
    <desc>Created with Sketch.</desc>
    <g id="Size-/-Ticket-/-Original-/-Inactive" stroke="none" stroke-width="1" fill="none" fill-rule="evenodd" stroke-linecap="round" stroke-linejoin="round">
        <path d="M70.4650861,4.15255192 C70.5444648,5.10830142 71.2620262,5.85671718 72.1370679,5.85671718 L72.1370679,5.85671718 L72.2737178,5.85057655 C73.1300358,5.77329478 73.8044338,4.97607526 73.8162098,4 L73.8162098,4 L76.9208582,4 L76.9208582,4 L76.9281541,4.15255192 C77.0083504,5.10830142 77.7259118,5.85671718 78.6009535,5.85671718 L78.6009535,5.85671718 L78.7376032,5.85057655 C79.593919,5.77329478 80.2682718,4.97607526 80.2791418,4 L80.2791418,4 L83.3208582,4 L83.3208582,4 L83.3280249,4.15255192 C83.4074875,5.10830142 84.1258641,5.85671718 85,5.85671718 L85,5.85671718 L85.1366566,5.85057655 C85.9930584,5.77329478 86.6682718,4.97607526 86.6791418,4 L86.6791418,4 L89.7847437,4 L89.7847437,4 L89.7919037,4.15255192 C89.8712825,5.10830142 90.5888439,5.85671718 91.4638856,5.85671718 L91.4638856,5.85671718 L91.6005354,5.85057655 C92.4568534,5.77329478 93.1312515,4.97607526 93.1430274,4 L93.1430274,4 L96.1847437,4 L96.1847437,4 L96.1919037,4.15255192 C96.2712825,5.10830142 96.9888439,5.85671718 97.8638856,5.85671718 L97.8638856,5.85671718 L98.0005354,5.85057655 C98.8568534,5.77329478 99.5312515,4.97607526 99.5430274,4 L99.5430274,4 L102.58379,4 L102.58379,4 L102.591086,4.15255192 C102.67128,5.10830142 103.388796,5.85671718 104.262932,5.85671718 L104.262932,5.85671718 L104.399589,5.85057655 C105.25599,5.77329478 105.931204,4.97607526 105.942074,4 L105.942074,4 L109.037187,4 C109.037187,6.889937 110.807867,8.42052614 113,8.43784267 L113,8.43784267 L113,112.561195 C110.790703,112.561195 109,114.092746 109,117 L109,117 L105.942074,117 C105.930632,115.973514 105.183075,115.143283 104.262932,115.143283 L104.262932,115.143283 L104.126282,115.14943 C103.269964,115.226797 102.595566,116.024839 102.58379,117 L102.58379,117 L99.5430274,117 C99.5306317,115.973514 98.7840286,115.143283 97.8638856,115.143283 L97.8638856,115.143283 L97.7270999,115.14943 C96.8699666,115.226797 96.1956138,116.024839 96.1847437,117 L96.1847437,117 L93.0791418,117 C93.0667461,115.973514 92.320143,115.143283 91.4,115.143283 L91.4,115.143283 L91.2632143,115.14943 C90.406081,115.226797 89.7317282,116.024839 89.7208582,117 L89.7208582,117 L86.6791418,117 C86.6676996,115.973514 85.920143,115.143283 85,115.143283 L85,115.143283 L84.8633434,115.14943 C84.0069416,115.226797 83.3317282,116.024839 83.3208582,117 L83.3208582,117 L80.2152563,117 C80.2038141,115.973514 79.457211,115.143283 78.5361144,115.143283 L78.5361144,115.143283 L78.3994646,115.14943 C77.5431466,115.226797 76.8687485,116.024839 76.8569726,117 L76.8569726,117 L73.8162098,117 C73.8038141,115.973514 73.057211,115.143283 72.1370679,115.143283 L72.1370679,115.143283 L72.0002822,115.14943 C71.143149,115.226797 70.4687962,116.024839 70.4579261,117 L70.4579261,117 L67.4162098,117 C67.4038141,115.973514 66.657211,115.143283 65.7370679,115.143283 L65.7370679,115.143283 L65.6004113,115.14943 C64.7440095,115.226797 64.0687962,116.024839 64.0579261,117 L64.0579261,117 L60.9628129,117 C60.9628129,114.110063 59.1921335,112.579474 57,112.563119 L57,112.563119 L57,8.4388047 C59.2092968,8.4388047 61,6.9062915 61,4 L61,4 L64.0579261,4 C64.0693683,5.02744764 64.8169249,5.85671718 65.7370679,5.85671718 L65.7370679,5.85671718 L65.8737178,5.85057655 C66.7300358,5.77329478 67.4044338,4.97607526 67.4162098,4 L67.4162098,4 L70.4579261,4 L70.4579261,4 Z" id="Stroke-1" stroke="#595858" stroke-width="2" fill="#FFFFFF"></path>
    </g>
</svg>